<?xml version="1.0" encoding="utf-8"?>
<!-- Generator: Adobe Illustrator 19.0.0, SVG Export Plug-In . SVG Version: 6.00 Build 0)  -->
<svg version="1.1" id="图层_1" xmlns="http://www.w3.org/2000/svg" xmlns:xlink="http://www.w3.org/1999/xlink" x="0px" y="0px"
	 viewBox="-240 78 742.8 637" style="enable-background:new -240 78 742.8 637;" xml:space="preserve">
<style type="text/css">
	.st0{fill:none;}
	.st1{fill:#595757;}
	.st2{font-family:'GillSans-SemiBold';}
	.st3{font-size:12px;}
	.st4{fill:#898989;}
	.st5{font-family:'GillSans-Bold';}
	.st6{font-size:10px;}
	.st7{fill:#B6574B;}
	.st8{font-family:'ArialMT';}
	.st9{font-size:8px;}
	.st10{font-family:'Helvetica';}
	.st11{fill:#7F9B73;}
	.st12{fill:#D69853;}
	.st13{fill:#2A678E;}
</style>
<g id="图层_1_1_">
</g>
<g id="图层_3">
</g>
<g id="图层_2">
</g>
<g id="图层_4">
</g>
<rect id="XMLID_182_" x="-208" y="143.2" class="st0" width="112" height="25.7"/>
<text class="movie-svg-text" id="casablanca" transform="matrix(1 0 0 1 -154.3449 153.2631)"><tspan x="0" y="0" class="st1 st2 st3">Casablanca</tspan><tspan x="26.8" y="12" class="st4 st5 st6">(1942)</tspan></text>
<rect id="XMLID_180_" x="-208" y="296.3" class="st0" width="112" height="25.7"/>
<text class="movie-svg-text" id="roman" transform="matrix(1 0 0 1 -176.5695 306.3909)"><tspan x="0" y="0" class="st1 st2 st3">Roman Holiday </tspan><tspan x="49.1" y="12" class="st4 st5 st6">(1953)</tspan></text>
<rect id="XMLID_178_" x="-208" y="451.7" class="st0" width="112" height="25.7"/>
<text class="movie-svg-text" id="west" transform="matrix(1 0 0 1 -181.8488 461.8013)"><tspan x="0" y="0" class="st1 st2 st3">West Side Story</tspan><tspan x="54.4" y="12" class="st4 st5 st6">(1961)</tspan></text>
<rect id="XMLID_176_" x="-208" y="622.4" class="st0" width="112" height="25.7"/>
<text class="movie-svg-text" id="annie" transform="matrix(1 0 0 1 -151.2101 632.4581)"><tspan x="0" y="0" class="st1 st2 st3">Annie Hall</tspan><tspan x="23.7" y="12" class="st4 st5 st6">(1977)</tspan></text>
<rect id="XMLID_174_" x="145.9" y="143.2" class="st0" width="127" height="25.7"/>
<text class="movie-svg-text" id="harry" transform="matrix(1 0 0 1 155.1922 153.2634)"><tspan x="0" y="0" class="st1 st2 st3">When Harry met Sally</tspan><tspan x="86.2" y="12" class="st4 st5 st6">(1989)</tspan></text>
<rect id="XMLID_172_" x="145.9" y="304.8" class="st0" width="127" height="25.7"/>
<text class="movie-svg-text" id="sleepless" transform="matrix(1 0 0 1 173.1043 314.8995)"><tspan x="0" y="0" class="st1 st2 st3">Sleepless in Seattle</tspan><tspan x="68.3" y="12" class="st4 st5 st6">(1993)</tspan></text>
<rect id="XMLID_170_" x="145.9" y="613.5" class="st0" width="127" height="25.7"/>
<text class="movie-svg-text" id="her" transform="matrix(1 0 0 1 252.452 623.5425)"><tspan x="0" y="0" class="st1 st2 st3">Her</tspan><tspan x="-11" y="12" class="st4 st5 st6">(2013)</tspan></text>
<rect id="XMLID_168_" x="145.9" y="460.5" class="st0" width="127" height="40.5"/>
<text class="movie-svg-text" id="eternal" transform="matrix(1 0 0 1 185.409 470.5479)"><tspan x="0" y="0" class="st1 st2 st3">Eternal Sunshine </tspan><tspan x="-19" y="14.4" class="st1 st2 st3">of the Spotless Mind </tspan><tspan x="56" y="26.4" class="st4 st5 st6">(2004)</tspan></text>
<rect id="XMLID_166_" x="-72.6" y="155.8" class="st0" width="57.1" height="12.8"/>
<text id="XMLID_481_" transform="matrix(1 0 0 1 -72.5807 162.6752)" class="st7 st8 st9">Anger 0.206</text>
<rect id="XMLID_164_" x="-59.7" y="313.9" class="st0" width="57.1" height="12.8"/>
<text id="XMLID_401_" transform="matrix(1 0 0 1 -59.7133 320.7515)" class="st7 st8 st9">Anger 0.151</text>
<rect id="XMLID_162_" x="307" y="329.2" class="st0" width="51.7" height="12.8"/>
<text id="XMLID_475_" transform="matrix(1 0 0 1 307.0147 336.0825)" class="st7 st10 st9">Anger 0.171</text>
<rect id="XMLID_160_" x="-57.2" y="181.4" class="st0" width="48.8" height="12.8"/>
<text id="XMLID_473_" transform="matrix(1 0 0 1 -57.1706 188.2503)" class="st11 st8 st9">Fear 0.253</text>
<rect id="XMLID_158_" x="30.5" y="313.9" class="st0" width="48.8" height="12.8"/>
<text id="XMLID_469_" transform="matrix(1 0 0 1 30.5269 320.7518)" class="st11 st8 st9">Fear 0.184</text>
<rect id="XMLID_156_" x="408.1" y="302" class="st0" width="48.8" height="12.8"/>
<text id="XMLID_460_" transform="matrix(1 0 0 1 408.1282 308.8215)" class="st11 st10 st9">Fear 0.209</text>
<rect id="XMLID_154_" x="41.2" y="181.4" class="st0" width="48.8" height="12.8"/>
<text id="XMLID_458_" transform="matrix(1 0 0 1 41.1766 188.2503)" class="st12 st8 st9">Joy 0.503</text>
<rect id="XMLID_152_" x="-42.3" y="330.2" class="st0" width="48.8" height="12.8"/>
<text id="XMLID_454_" transform="matrix(1 0 0 1 -42.3344 337.0928)" class="st12 st8 st9">Joy 0.234</text>
<rect id="XMLID_150_" x="409.7" y="329.2" class="st0" width="48.8" height="12.8"/>
<text id="XMLID_452_" transform="matrix(1 0 0 1 409.6818 336.0821)" class="st12 st10 st9">Joy 0.437</text>
<rect id="XMLID_148_" x="30.5" y="137.8" class="st0" width="63.5" height="12.8"/>
<text id="XMLID_450_" transform="matrix(1 0 0 1 30.5269 144.6757)" class="st13 st8 st9">Sadness 0.552</text>
<rect id="XMLID_146_" x="299.8" y="145.4" class="st0" width="57.1" height="12.8"/>
<text id="XMLID_300_" transform="matrix(1 0 0 1 299.8345 152.2337)" class="st7 st10 st9">Anger 0.188</text>
<rect id="XMLID_144_" x="395" y="180.6" class="st0" width="48.8" height="12.8"/>
<text id="XMLID_297_" transform="matrix(1 0 0 1 394.9744 187.4899)" class="st11 st10 st9">Fear 0.214</text>
<rect id="XMLID_142_" x="299.8" y="180.6" class="st0" width="48.8" height="12.8"/>
<text id="XMLID_295_" transform="matrix(1 0 0 1 299.7628 187.4901)" class="st12 st10 st9">Joy 0.437</text>
<rect id="XMLID_140_" x="405.2" y="138.9" class="st0" width="63.5" height="12.8"/>
<text id="XMLID_37_" transform="matrix(1 0 0 1 405.1949 145.8111)" class="st13 st10 st9">Sadness 0.566</text>
<rect id="XMLID_138_" x="22" y="295.5" class="st0" width="63.5" height="12.8"/>
<text id="XMLID_399_" transform="matrix(1 0 0 1 22.0457 302.4002)" class="st13 st8 st9">Sadness 0.299</text>
<rect id="XMLID_136_" x="-74.9" y="470.5" class="st0" width="57.1" height="12.8"/>
<text id="XMLID_562_" transform="matrix(1 0 0 1 -74.9125 477.3288)" class="st7 st8 st9">Anger 0.288</text>
<rect id="XMLID_134_" x="39.7" y="493.5" class="st0" width="48.8" height="12.8"/>
<text id="XMLID_560_" transform="matrix(1 0 0 1 39.7237 500.3967)" class="st11 st8 st9">Fear 0.318</text>
<rect id="XMLID_132_" x="-50.7" y="493.5" class="st0" width="48.8" height="12.8"/>
<text id="XMLID_477_" transform="matrix(1 0 0 1 -50.6799 500.3967)" class="st12 st8 st9">Joy 0.362</text>
<rect id="XMLID_130_" x="38.1" y="456" class="st0" width="63.5" height="12.8"/>
<text id="XMLID_392_" transform="matrix(1 0 0 1 38.0762 462.897)" class="st13 st8 st9">Sadness 0.497</text>
<rect id="XMLID_128_" x="-60.3" y="652.7" class="st0" width="57.1" height="12.8"/>
<text id="XMLID_33_" transform="matrix(1 0 0 1 -60.2888 659.6083)" class="st7 st8 st9">Anger 0.247</text>
<rect id="XMLID_126_" x="47.5" y="633.3" class="st0" width="48.8" height="12.8"/>
<text id="XMLID_31_" transform="matrix(1 0 0 1 47.4512 640.1924)" class="st11 st8 st9">Fear 0.214</text>
<rect id="XMLID_124_" x="37.6" y="652.7" class="st0" width="48.8" height="12.8"/>
<text id="XMLID_29_" transform="matrix(1 0 0 1 37.5745 659.6085)" class="st12 st8 st9">Joy 0.302</text>
<rect id="XMLID_122_" x="-69.6" y="619.7" class="st0" width="63.5" height="12.8"/>
<text id="XMLID_27_" transform="matrix(1 0 0 1 -69.6398 626.5617)" class="st13 st8 st9">Sadness 0.477</text>
<rect id="XMLID_120_" x="291.5" y="302" class="st0" width="57.2" height="12.8"/>
<text id="XMLID_435_" transform="matrix(1 0 0 1 291.485 308.8209)" class="st13 st10 st9">Sadness 0.486</text>
<rect id="XMLID_118_" x="399.2" y="462.7" class="st0" width="51.7" height="12.8"/>
<text id="XMLID_457_" transform="matrix(1 0 0 1 399.158 469.5849)" class="st7 st10 st9">Anger 0.238</text>
<rect id="XMLID_116_" x="312.1" y="454.8" class="st0" width="48.8" height="12.8"/>
<text id="XMLID_258_" transform="matrix(1 0 0 1 312.1216 461.6523)" class="st11 st10 st9">Fear 0.302</text>
<rect id="XMLID_114_" x="404.4" y="489.6" class="st0" width="48.8" height="12.8"/>
<text id="XMLID_250_" transform="matrix(1 0 0 1 404.389 496.4307)" class="st12 st10 st9">Joy 0.275</text>
<rect id="XMLID_112_" x="292.5" y="489.6" class="st0" width="57.2" height="12.8"/>
<text id="XMLID_239_" transform="matrix(1 0 0 1 292.5169 496.4301)" class="st13 st10 st9">Sadness 0.459</text>
<rect id="XMLID_110_" x="303.7" y="604.6" class="st0" width="51.7" height="12.8"/>
<text id="XMLID_507_" transform="matrix(1 0 0 1 303.662 611.4272)" class="st7 st10 st9">Anger 0.219</text>
<rect id="XMLID_108_" x="402.9" y="645.6" class="st0" width="48.8" height="12.8"/>
<text id="XMLID_211_" transform="matrix(1 0 0 1 402.9422 652.4926)" class="st11 st10 st9">Fear 0.263</text>
<rect id="XMLID_106_" x="300.6" y="645.6" class="st0" width="48.8" height="12.8"/>
<text id="XMLID_209_" transform="matrix(1 0 0 1 300.5797 652.4924)" class="st12 st10 st9">Joy 0.537</text>
<rect id="XMLID_104_" x="409.5" y="593.4" class="st0" width="57.2" height="12.8"/>
<text id="XMLID_198_" transform="matrix(1 0 0 1 409.4769 600.2571)" class="st13 st10 st9">Sadness 0.665</text>
<g id="XMLID_414_">
	<circle id="XMLID_556_" class="st13" cx="2.9" cy="144.2" r="17.2"/>
	<circle id="XMLID_557_" class="st7" cx="-12.1" cy="164" r="6.5"/>
	<circle id="XMLID_416_" class="st11" cx="-3.8" cy="177" r="7.8"/>
	<circle id="XMLID_415_" class="st12" cx="20.4" cy="173.4" r="15.9"/>
</g>
<g id="XMLID_398_">
	<circle id="XMLID_418_" class="st13" cx="6.8" cy="309.6" r="9.4"/>
	<circle id="XMLID_555_" class="st7" cx="-3.6" cy="320.2" r="4.8"/>
	<circle id="XMLID_558_" class="st11" cx="19" cy="319.9" r="5.7"/>
	<circle id="XMLID_559_" class="st12" cx="7" cy="327.6" r="7.5"/>
</g>
<g id="XMLID_509_">
	<circle id="XMLID_513_" class="st7" cx="-12.4" cy="474.4" r="9.1"/>
	<circle id="XMLID_512_" class="st13" cx="11.3" cy="462.5" r="15.8"/>
	<circle id="XMLID_511_" class="st11" cx="25.3" cy="486.2" r="10"/>
	<circle id="XMLID_510_" class="st12" cx="2.8" cy="490.3" r="11.5"/>
</g>
<g id="XMLID_564_">
	<circle id="XMLID_568_" class="st7" cx="1.7" cy="651.5" r="7.7"/>
	<circle id="XMLID_567_" class="st13" cx="8.6" cy="628.3" r="15.1"/>
	<circle id="XMLID_566_" class="st11" cx="32.4" cy="637.1" r="8.7"/>
	<circle id="XMLID_565_" class="st12" cx="20" cy="652" r="9.5"/>
</g>
<g id="XMLID_385_">
	<circle id="XMLID_456_" class="st7" cx="355.8" cy="151.4" r="6"/>
	<circle id="XMLID_449_" class="st13" cx="381.1" cy="147.5" r="18.1"/>
	<circle id="XMLID_448_" class="st11" cx="381.6" cy="174.1" r="6.6"/>
	<circle id="XMLID_386_" class="st12" cx="359.4" cy="172.9" r="14.2"/>
</g>
<g id="XMLID_472_">
	<circle id="XMLID_505_" class="st7" cx="366.2" cy="326.4" r="5.3"/>
	<circle id="XMLID_502_" class="st13" cx="368.4" cy="305" r="15.3"/>
	<circle id="XMLID_480_" class="st11" cx="391.3" cy="308.4" r="6.4"/>
	<circle id="XMLID_479_" class="st12" cx="386.8" cy="329.3" r="13.8"/>
</g>
<g id="XMLID_35_">
	<circle id="XMLID_299_" class="st7" cx="363" cy="610.5" r="6.9"/>
	<circle id="XMLID_40_" class="st13" cx="392.5" cy="614.3" r="20.9"/>
	<circle id="XMLID_38_" class="st11" cx="384.7" cy="643.8" r="8.2"/>
	<circle id="XMLID_36_" class="st12" cx="359.5" cy="635.3" r="16.8"/>
</g>
<g id="XMLID_286_">
	<circle id="XMLID_293_" class="st7" cx="383.7" cy="468.8" r="7.5"/>
	<circle id="XMLID_292_" class="st13" cx="366" cy="483.6" r="14.5"/>
	<circle id="XMLID_291_" class="st11" cx="368.2" cy="458.4" r="9.6"/>
	<circle id="XMLID_290_" class="st12" cx="390.4" cy="484.7" r="8.7"/>
</g>
</svg>
